<svg width="16" height="17" viewBox="0 0 16 17" fill="none" xmlns="http://www.w3.org/2000/svg">
<mask id="path-1-inside-1_4257_4325" fill="white">
<path d="M1.27785 2.49577C1.30956 2.49561 1.34127 2.49545 1.37394 2.49529C1.42635 2.49527 1.42635 2.49527 1.47982 2.49524C1.51686 2.4951 1.5539 2.49497 1.59206 2.49483C1.69505 2.49448 1.79803 2.49428 1.90102 2.49413C2.01203 2.49395 2.12304 2.49358 2.23405 2.49325C2.50223 2.49248 2.77041 2.49203 3.03859 2.49162C3.11433 2.49151 3.19007 2.49138 3.26581 2.49126C3.73613 2.49047 4.20645 2.48978 4.67677 2.48939C4.78572 2.4893 4.89466 2.4892 5.0036 2.48911C5.03068 2.48909 5.05776 2.48906 5.08566 2.48904C5.5243 2.48864 5.96293 2.48761 6.40157 2.4863C6.85189 2.48498 7.3022 2.48424 7.75252 2.48408C8.00536 2.48397 8.25821 2.4836 8.51105 2.48258C8.72639 2.4817 8.94172 2.48136 9.15705 2.48171C9.2669 2.48187 9.37673 2.48178 9.48657 2.481C9.60575 2.48017 9.7249 2.48055 9.84408 2.48105C9.89596 2.4804 9.89596 2.4804 9.9489 2.47974C10.1896 2.48221 10.3396 2.53666 10.5162 2.70028C10.6444 2.83908 10.6785 2.98293 10.6992 3.16607C10.672 3.43395 10.5312 3.65831 10.3828 3.877C10.3466 3.93159 10.3103 3.98619 10.2742 4.04082C10.2455 4.08389 10.2455 4.08389 10.2163 4.12783C10.1098 4.28915 10.0062 4.4523 9.90234 4.61529C9.7636 4.83247 9.62465 5.04949 9.48437 5.26568C9.34282 5.48384 9.20257 5.70282 9.06249 5.92193C8.90932 6.16152 8.75573 6.40083 8.60091 6.63936C8.51523 6.77152 8.43013 6.90405 8.34533 7.03679C8.32346 7.07103 8.30158 7.10528 8.27905 7.14055C8.23633 7.20747 8.19364 7.2744 8.151 7.34136C8.13101 7.37266 8.11103 7.40396 8.09045 7.43621C8.07182 7.46597 8.05318 7.49573 8.03399 7.52639C7.96874 7.62505 7.96874 7.62505 7.9032 7.70492C7.67859 7.99004 7.68419 8.23973 7.68948 8.58607C7.68945 8.64448 7.6893 8.70288 7.68905 8.76128C7.68876 8.88637 7.68924 9.01141 7.69034 9.13649C7.69208 9.33443 7.69204 9.53234 7.69176 9.73028C7.69152 10.0434 7.69245 10.3564 7.69389 10.6695C7.69646 11.2303 7.69762 11.791 7.69749 12.3518C7.6975 12.5484 7.69821 12.745 7.69948 12.9416C7.70016 13.064 7.70033 13.1864 7.70038 13.3088C7.70052 13.3653 7.70086 13.4219 7.70145 13.4785C7.70763 14.0987 7.70763 14.0987 7.50688 14.3081C7.32327 14.4768 7.16547 14.5254 6.91535 14.5211C6.63015 14.4894 6.36725 14.3221 6.11621 14.1933C6.05285 14.1615 5.98947 14.1298 5.92605 14.0982C5.79382 14.032 5.66191 13.9652 5.53021 13.8979C5.36178 13.8119 5.19278 13.7272 5.02354 13.6428C4.89283 13.5775 4.76239 13.5118 4.63202 13.4458C4.56979 13.4144 4.50749 13.3831 4.44513 13.3519C4.358 13.3082 4.27122 13.2639 4.1845 13.2193C4.15898 13.2067 4.13346 13.194 4.10716 13.181C3.88988 13.0679 3.73239 12.9259 3.65624 12.6876C3.64929 12.5975 3.64929 12.5975 3.65049 12.4966C3.65077 12.4582 3.65105 12.4198 3.65134 12.3803C3.65197 12.3379 3.65259 12.2956 3.65322 12.2533C3.65365 12.2085 3.65404 12.1637 3.6544 12.1189C3.65521 12.0225 3.65617 11.9261 3.65722 11.8297C3.65881 11.6766 3.65951 11.5235 3.66 11.3703C3.66008 11.3444 3.66017 11.3185 3.66025 11.2918C3.66042 11.2388 3.66059 11.1858 3.66075 11.1327C3.66187 10.7765 3.66343 10.4202 3.66792 10.0639C3.67094 9.82339 3.67236 9.58289 3.67202 9.34232C3.6719 9.21534 3.67254 9.08848 3.67513 8.96153C3.68705 8.35127 3.64034 7.90216 3.23907 7.40859C3.16711 7.31819 3.10784 7.2229 3.04748 7.12444C3.00888 7.06409 2.97026 7.00375 2.93163 6.94341C2.90032 6.8945 2.90032 6.8945 2.86838 6.84459C2.69437 6.57293 2.51936 6.30193 2.34374 6.0313C2.08279 5.62916 1.82404 5.22563 1.56584 4.82172C1.49989 4.71864 1.43386 4.61562 1.36779 4.51262C0.994763 3.93093 0.994763 3.93093 0.814447 3.64458C0.801723 3.62452 0.788998 3.60446 0.775888 3.58378C0.65333 3.38815 0.630313 3.22806 0.656244 3.00005C0.726265 2.77743 0.830388 2.64661 1.03124 2.5313C1.12304 2.5007 1.18221 2.49602 1.27785 2.49577ZM2.59374 3.8438C2.74921 4.1299 2.74921 4.1299 2.92187 4.40044C3.05513 4.59672 3.18357 4.79575 3.31054 4.99614C3.43926 5.19917 3.56829 5.40195 3.69921 5.60357C3.84209 5.82366 3.98366 6.04458 4.12499 6.26568C4.2709 6.49392 4.41709 6.72196 4.56445 6.94927C4.59143 6.99094 4.6184 7.0326 4.64538 7.07427C4.68148 7.13004 4.7176 7.18579 4.75379 7.24151C4.78518 7.28986 4.81642 7.33831 4.84765 7.38677C4.86449 7.41279 4.88133 7.43882 4.89868 7.46563C4.96685 7.58097 4.97288 7.67344 4.97369 7.80479C4.97399 7.84226 4.9743 7.87972 4.97462 7.91832C4.9748 7.95948 4.97498 8.00064 4.97516 8.04304C4.97546 8.08678 4.97577 8.13051 4.9761 8.17424C4.97694 8.29303 4.9776 8.41182 4.97822 8.53062C4.97891 8.65474 4.97976 8.77886 4.9806 8.90298C4.98216 9.13805 4.98356 9.37312 4.98491 9.60819C4.98646 9.87579 4.98817 10.1434 4.9899 10.411C4.99346 10.9615 4.9968 11.512 4.99999 12.0626C5.09462 12.1125 5.18927 12.1623 5.28391 12.2122C5.3105 12.2262 5.33708 12.2402 5.36447 12.2547C5.5661 12.3609 5.76864 12.4649 5.97265 12.5665C6.0025 12.5814 6.03235 12.5964 6.0631 12.6119C6.09134 12.626 6.11958 12.6401 6.14868 12.6546C6.17354 12.667 6.1984 12.6794 6.22401 12.6922C6.27545 12.721 6.27545 12.721 6.31249 12.7188C6.31254 12.6933 6.31259 12.6678 6.31263 12.6416C6.31379 12.0208 6.31564 11.4 6.31824 10.7792C6.31948 10.479 6.3205 10.1788 6.32096 9.87861C6.32137 9.61686 6.32221 9.35511 6.32358 9.09337C6.32428 8.95485 6.32477 8.81634 6.32474 8.67782C6.32472 8.54726 6.32528 8.41671 6.32628 8.28615C6.32655 8.23841 6.3266 8.19067 6.32643 8.14293C6.32511 7.73236 6.41977 7.4602 6.64843 7.1231C6.68468 7.06852 6.72089 7.01391 6.75707 6.95928C6.77618 6.93057 6.79528 6.90186 6.81497 6.87227C6.92142 6.71095 7.02501 6.5478 7.1289 6.38482C7.26764 6.16764 7.40659 5.95061 7.54687 5.73443C7.71027 5.48258 7.87196 5.22964 8.03361 4.97667C8.17119 4.76147 8.30935 4.54666 8.44921 4.33294C8.55394 4.17209 8.651 4.00879 8.74999 3.8438C6.71843 3.8438 4.68687 3.8438 2.59374 3.8438Z"/>
</mask>
<path d="M1.27785 2.49577C1.30956 2.49561 1.34127 2.49545 1.37394 2.49529C1.42635 2.49527 1.42635 2.49527 1.47982 2.49524C1.51686 2.4951 1.5539 2.49497 1.59206 2.49483C1.69505 2.49448 1.79803 2.49428 1.90102 2.49413C2.01203 2.49395 2.12304 2.49358 2.23405 2.49325C2.50223 2.49248 2.77041 2.49203 3.03859 2.49162C3.11433 2.49151 3.19007 2.49138 3.26581 2.49126C3.73613 2.49047 4.20645 2.48978 4.67677 2.48939C4.78572 2.4893 4.89466 2.4892 5.0036 2.48911C5.03068 2.48909 5.05776 2.48906 5.08566 2.48904C5.5243 2.48864 5.96293 2.48761 6.40157 2.4863C6.85189 2.48498 7.3022 2.48424 7.75252 2.48408C8.00536 2.48397 8.25821 2.4836 8.51105 2.48258C8.72639 2.4817 8.94172 2.48136 9.15705 2.48171C9.2669 2.48187 9.37673 2.48178 9.48657 2.481C9.60575 2.48017 9.7249 2.48055 9.84408 2.48105C9.89596 2.4804 9.89596 2.4804 9.9489 2.47974C10.1896 2.48221 10.3396 2.53666 10.5162 2.70028C10.6444 2.83908 10.6785 2.98293 10.6992 3.16607C10.672 3.43395 10.5312 3.65831 10.3828 3.877C10.3466 3.93159 10.3103 3.98619 10.2742 4.04082C10.2455 4.08389 10.2455 4.08389 10.2163 4.12783C10.1098 4.28915 10.0062 4.4523 9.90234 4.61529C9.7636 4.83247 9.62465 5.04949 9.48437 5.26568C9.34282 5.48384 9.20257 5.70282 9.06249 5.92193C8.90932 6.16152 8.75573 6.40083 8.60091 6.63936C8.51523 6.77152 8.43013 6.90405 8.34533 7.03679C8.32346 7.07103 8.30158 7.10528 8.27905 7.14055C8.23633 7.20747 8.19364 7.2744 8.151 7.34136C8.13101 7.37266 8.11103 7.40396 8.09045 7.43621C8.07182 7.46597 8.05318 7.49573 8.03399 7.52639C7.96874 7.62505 7.96874 7.62505 7.9032 7.70492C7.67859 7.99004 7.68419 8.23973 7.68948 8.58607C7.68945 8.64448 7.6893 8.70288 7.68905 8.76128C7.68876 8.88637 7.68924 9.01141 7.69034 9.13649C7.69208 9.33443 7.69204 9.53234 7.69176 9.73028C7.69152 10.0434 7.69245 10.3564 7.69389 10.6695C7.69646 11.2303 7.69762 11.791 7.69749 12.3518C7.6975 12.5484 7.69821 12.745 7.69948 12.9416C7.70016 13.064 7.70033 13.1864 7.70038 13.3088C7.70052 13.3653 7.70086 13.4219 7.70145 13.4785C7.70763 14.0987 7.70763 14.0987 7.50688 14.3081C7.32327 14.4768 7.16547 14.5254 6.91535 14.5211C6.63015 14.4894 6.36725 14.3221 6.11621 14.1933C6.05285 14.1615 5.98947 14.1298 5.92605 14.0982C5.79382 14.032 5.66191 13.9652 5.53021 13.8979C5.36178 13.8119 5.19278 13.7272 5.02354 13.6428C4.89283 13.5775 4.76239 13.5118 4.63202 13.4458C4.56979 13.4144 4.50749 13.3831 4.44513 13.3519C4.358 13.3082 4.27122 13.2639 4.1845 13.2193C4.15898 13.2067 4.13346 13.194 4.10716 13.181C3.88988 13.0679 3.73239 12.9259 3.65624 12.6876C3.64929 12.5975 3.64929 12.5975 3.65049 12.4966C3.65077 12.4582 3.65105 12.4198 3.65134 12.3803C3.65197 12.3379 3.65259 12.2956 3.65322 12.2533C3.65365 12.2085 3.65404 12.1637 3.6544 12.1189C3.65521 12.0225 3.65617 11.9261 3.65722 11.8297C3.65881 11.6766 3.65951 11.5235 3.66 11.3703C3.66008 11.3444 3.66017 11.3185 3.66025 11.2918C3.66042 11.2388 3.66059 11.1858 3.66075 11.1327C3.66187 10.7765 3.66343 10.4202 3.66792 10.0639C3.67094 9.82339 3.67236 9.58289 3.67202 9.34232C3.6719 9.21534 3.67254 9.08848 3.67513 8.96153C3.68705 8.35127 3.64034 7.90216 3.23907 7.40859C3.16711 7.31819 3.10784 7.2229 3.04748 7.12444C3.00888 7.06409 2.97026 7.00375 2.93163 6.94341C2.90032 6.8945 2.90032 6.8945 2.86838 6.84459C2.69437 6.57293 2.51936 6.30193 2.34374 6.0313C2.08279 5.62916 1.82404 5.22563 1.56584 4.82172C1.49989 4.71864 1.43386 4.61562 1.36779 4.51262C0.994763 3.93093 0.994763 3.93093 0.814447 3.64458C0.801723 3.62452 0.788998 3.60446 0.775888 3.58378C0.65333 3.38815 0.630313 3.22806 0.656244 3.00005C0.726265 2.77743 0.830388 2.64661 1.03124 2.5313C1.12304 2.5007 1.18221 2.49602 1.27785 2.49577ZM2.59374 3.8438C2.74921 4.1299 2.74921 4.1299 2.92187 4.40044C3.05513 4.59672 3.18357 4.79575 3.31054 4.99614C3.43926 5.19917 3.56829 5.40195 3.69921 5.60357C3.84209 5.82366 3.98366 6.04458 4.12499 6.26568C4.2709 6.49392 4.41709 6.72196 4.56445 6.94927C4.59143 6.99094 4.6184 7.0326 4.64538 7.07427C4.68148 7.13004 4.7176 7.18579 4.75379 7.24151C4.78518 7.28986 4.81642 7.33831 4.84765 7.38677C4.86449 7.41279 4.88133 7.43882 4.89868 7.46563C4.96685 7.58097 4.97288 7.67344 4.97369 7.80479C4.97399 7.84226 4.9743 7.87972 4.97462 7.91832C4.9748 7.95948 4.97498 8.00064 4.97516 8.04304C4.97546 8.08678 4.97577 8.13051 4.9761 8.17424C4.97694 8.29303 4.9776 8.41182 4.97822 8.53062C4.97891 8.65474 4.97976 8.77886 4.9806 8.90298C4.98216 9.13805 4.98356 9.37312 4.98491 9.60819C4.98646 9.87579 4.98817 10.1434 4.9899 10.411C4.99346 10.9615 4.9968 11.512 4.99999 12.0626C5.09462 12.1125 5.18927 12.1623 5.28391 12.2122C5.3105 12.2262 5.33708 12.2402 5.36447 12.2547C5.5661 12.3609 5.76864 12.4649 5.97265 12.5665C6.0025 12.5814 6.03235 12.5964 6.0631 12.6119C6.09134 12.626 6.11958 12.6401 6.14868 12.6546C6.17354 12.667 6.1984 12.6794 6.22401 12.6922C6.27545 12.721 6.27545 12.721 6.31249 12.7188C6.31254 12.6933 6.31259 12.6678 6.31263 12.6416C6.31379 12.0208 6.31564 11.4 6.31824 10.7792C6.31948 10.479 6.3205 10.1788 6.32096 9.87861C6.32137 9.61686 6.32221 9.35511 6.32358 9.09337C6.32428 8.95485 6.32477 8.81634 6.32474 8.67782C6.32472 8.54726 6.32528 8.41671 6.32628 8.28615C6.32655 8.23841 6.3266 8.19067 6.32643 8.14293C6.32511 7.73236 6.41977 7.4602 6.64843 7.1231C6.68468 7.06852 6.72089 7.01391 6.75707 6.95928C6.77618 6.93057 6.79528 6.90186 6.81497 6.87227C6.92142 6.71095 7.02501 6.5478 7.1289 6.38482C7.26764 6.16764 7.40659 5.95061 7.54687 5.73443C7.71027 5.48258 7.87196 5.22964 8.03361 4.97667C8.17119 4.76147 8.30935 4.54666 8.44921 4.33294C8.55394 4.17209 8.651 4.00879 8.74999 3.8438C6.71843 3.8438 4.68687 3.8438 2.59374 3.8438Z" fill="#0DA0A8" stroke="white" stroke-width="0.2" mask="url(#path-1-inside-1_4257_4325)"/>
<path d="M10.0745 7.85786L10.0744 7.85786C9.86727 7.85864 9.73268 7.89108 9.56343 8.00725C9.42792 8.14429 9.35806 8.31358 9.35471 8.50649C9.36841 8.70668 9.42984 8.85747 9.57055 8.99978C9.7967 9.14202 10.0051 9.15101 10.2809 9.1499C10.3275 9.14969 10.3742 9.14965 10.4209 9.14978L10.4209 9.14978C10.5481 9.15032 10.6752 9.15051 10.8023 9.15024C10.9377 9.14993 11.073 9.14995 11.2084 9.15009C11.4351 9.15034 11.6619 9.15028 11.8887 9.14985M10.0745 7.85786L14.3665 7.84714C14.6499 7.84467 14.9163 7.84545 15.119 8.02777C15.1982 8.11343 15.2447 8.19555 15.2713 8.28388C15.2982 8.37305 15.3058 8.47117 15.3036 8.59037C15.2856 8.75947 15.2222 8.86164 15.1007 8.98671C14.8524 9.15203 14.6179 9.15098 14.3116 9.14961L14.3067 9.14959L14.3063 9.14959L14.1624 9.15009C14.1624 9.15009 14.1624 9.15009 14.1623 9.15009C14.0328 9.15051 13.9032 9.15035 13.7735 9.15005L13.7735 9.15005C13.6563 9.14985 13.539 9.14998 13.4219 9.15012C13.403 9.15014 13.3841 9.15016 13.3652 9.15018C13.1368 9.15035 12.9084 9.15013 12.68 9.14968C12.4162 9.14917 12.1525 9.14934 11.8887 9.14985M10.0745 7.85786L10.1985 7.85718L10.1987 7.85718L10.3347 7.85693L10.3348 7.85693M10.0745 7.85786L10.3348 7.85693M11.8887 9.14985L11.8888 9.19985M11.8887 9.14985L11.8888 9.19985M11.8888 9.19985C12.1525 9.19934 12.4162 9.19917 12.6799 9.19968C12.9084 9.20013 13.1368 9.20035 13.3653 9.20018L10.8024 9.20024C10.9377 9.19993 11.073 9.19995 11.2083 9.20009C11.4351 9.20034 11.662 9.20028 11.8888 9.19985ZM10.3348 7.85693L10.4784 7.85631C10.4784 7.85631 10.4784 7.85631 10.4784 7.85631C10.6354 7.85565 10.7925 7.85532 10.9496 7.85501L10.9496 7.85501M10.3348 7.85693L10.9496 7.85501M10.9496 7.85501L11.1121 7.85463M10.9496 7.85501L11.1121 7.85463M13.437 7.84943L13.437 7.84943C13.21 7.84953 12.983 7.84999 12.7561 7.85094L13.437 7.84943ZM13.437 7.84943C13.5725 7.84935 13.7081 7.84908 13.8437 7.84829L13.437 7.84943ZM14.2261 7.84775L14.226 7.84775C14.0986 7.84743 13.9711 7.84756 13.8437 7.84829L14.2261 7.84775ZM14.2261 7.84775C14.2729 7.84776 14.3197 7.84757 14.3665 7.84714L14.2261 7.84775ZM11.1121 7.85463C11.1121 7.85463 11.1121 7.85463 11.1121 7.85463M11.1121 7.85463L11.1121 7.85463M11.1121 7.85463C11.3666 7.85403 11.6211 7.85359 11.8757 7.85333M11.1121 7.85463L11.8757 7.85333M11.8757 7.85333C12.1691 7.85302 12.4626 7.8522 12.756 7.85094L11.8757 7.85333ZM9.53125 7.96871C9.71206 7.84366 9.85744 7.80867 10.0742 7.80786L10.2811 9.1999C10.0027 9.20102 9.78023 9.19249 9.53906 9.03902C9.38572 8.88568 9.31895 8.72164 9.30469 8.50777C9.30779 8.29978 9.3838 8.11616 9.53125 7.96871Z" fill="#0DA0A8" stroke="white" stroke-width="0.1"/>
<path d="M10.0209 11.1979L10.0207 11.1979C9.86301 11.1984 9.75549 11.217 9.62629 11.2959C9.46405 11.4263 9.38242 11.5827 9.3527 11.7922C9.34703 11.9808 9.39402 12.1259 9.51997 12.2637C9.62251 12.3618 9.7212 12.413 9.82814 12.44C9.93722 12.4676 10.0568 12.4707 10.2033 12.4691C10.2521 12.4685 10.3009 12.4683 10.3498 12.4683H10.3499C10.4825 12.4687 10.6151 12.4685 10.7477 12.4675C10.889 12.4665 11.0301 12.4661 11.1713 12.466H11.1713C11.4075 12.4659 11.6436 12.4652 11.8798 12.464C12.2158 12.4623 12.5517 12.4612 12.8877 12.4607C13.1222 12.4604 13.3566 12.4598 13.5911 12.4591L13.7602 12.4586H13.7602C13.9239 12.4581 14.0875 12.4577 14.2511 12.4568L14.4004 12.4561L14.4005 12.4561C14.4701 12.4559 14.5395 12.4557 14.6089 12.4553L14.6716 12.4549L14.6717 12.4549C14.7812 12.4543 14.8535 12.4537 14.9482 12.4229C15.0425 12.3682 15.112 12.3112 15.1661 12.2434C15.2203 12.1755 15.261 12.0944 15.2947 11.9892C15.3195 11.7923 15.307 11.6323 15.2025 11.471L15.1607 11.4207L15.1601 11.4199L15.1601 11.4199L15.1208 11.3707C14.9132 11.1935 14.7091 11.1885 14.4271 11.1906L10.0209 11.1979ZM10.0209 11.1979L10.083 11.1975C10.083 11.1975 10.083 11.1975 10.083 11.1975C10.1513 11.1971 10.2196 11.1972 10.288 11.1972L10.2883 11.1972M10.0209 11.1979L10.2883 11.1972M10.2883 11.1972L10.4358 11.1966C10.4358 11.1966 10.4359 11.1966 10.4359 11.1966C10.5692 11.196 10.7026 11.1959 10.836 11.1958L10.836 11.1958M10.2883 11.1972L10.836 11.1958M10.836 11.1958L11.0864 11.1955M10.836 11.1958L11.0864 11.1955M14.2829 11.191L14.2828 11.191C14.152 11.1906 14.0213 11.1906 13.8905 11.1912L14.2829 11.191ZM14.2829 11.191C14.3309 11.1911 14.379 11.1909 14.4271 11.1906L14.2829 11.191ZM11.0864 11.1955C11.3776 11.1949 11.6689 11.1947 11.9601 11.1947M11.0864 11.1955L11.9601 11.1947M11.9601 11.1947C12.2314 11.1948 12.5027 11.1941 12.7739 11.1931L11.9601 11.1947ZM12.7739 11.1931C13.0069 11.1923 13.2399 11.192 13.473 11.192C13.6121 11.192 13.7513 11.1918 13.8905 11.1912L12.7739 11.1931Z" fill="#0DA0A8" stroke="white" stroke-width="0.1"/>
<path d="M11.9126 4.54188L11.9126 4.54188C11.8395 4.54209 11.7993 4.54705 11.7365 4.5742C11.5398 4.68736 11.4242 4.82515 11.3614 5.04227C11.3279 5.24958 11.3944 5.42292 11.5133 5.60065C11.6675 5.75008 11.818 5.80771 12.0342 5.81002L12.116 5.80897L12.1169 5.80896C12.2098 5.80934 12.3025 5.80952 12.3952 5.80891M11.9126 4.54188L12.3956 5.85891M11.9126 4.54188L11.9129 4.54188L11.9912 4.54121M11.9126 4.54188L11.9125 4.49188M12.3952 5.80891L12.3956 5.85891M12.3952 5.80891C12.3952 5.80891 12.3952 5.80891 12.3952 5.80891L12.3956 5.85891M12.3952 5.80891C12.4617 5.80842 12.5281 5.80815 12.5945 5.80807L12.5946 5.80807C12.7332 5.80811 12.8718 5.80798 13.0103 5.80729M12.3956 5.85891C12.4619 5.85842 12.5283 5.85815 12.5946 5.85807C12.7333 5.85811 12.872 5.85798 13.0106 5.85728M13.0103 5.80729L13.0106 5.85728M13.0103 5.80729C13.1904 5.80621 13.3705 5.80535 13.5506 5.80536H13.5507C13.6913 5.8054 13.832 5.80528 13.9727 5.80491M13.0103 5.80729C13.0104 5.80729 13.0104 5.80728 13.0104 5.80728L13.0106 5.85728M13.0106 5.85728C13.1906 5.85621 13.3706 5.85535 13.5506 5.85536M11.9125 4.49188L11.9911 4.49121M11.9125 4.49188C11.834 4.49211 11.7864 4.49778 11.7141 4.52946L11.9125 4.49188ZM11.9911 4.49121L11.9909 4.54121L11.9912 4.54121M11.9911 4.49121L12.0765 4.49145M11.9911 4.49121L12.0765 4.49145M11.9912 4.54121L12.0764 4.54145V4.54145L12.0768 4.54145L12.1673 4.54096M11.9912 4.54121L12.1673 4.54096M12.1673 4.54096C12.1673 4.54096 12.1673 4.54096 12.1673 4.54096C12.266 4.54053 12.3648 4.54056 12.4636 4.54063L12.4637 4.54063L12.6699 4.54022C12.6699 4.54022 12.67 4.54022 12.67 4.54022C12.67 4.54022 12.67 4.54022 12.67 4.54022C12.814 4.53999 12.9581 4.54 13.1021 4.54016L13.1022 4.54016L12.1673 4.54096ZM13.6562 4.53909C13.7981 4.53863 13.9399 4.5386 14.0819 4.5387L14.0819 4.5387C14.15 4.53869 14.2182 4.53852 14.2863 4.53821L13.6562 4.53909ZM13.6562 4.53909C13.6562 4.53909 13.6562 4.53909 13.6561 4.53909L13.656 4.48909L13.6562 4.53909ZM13.9728 5.85491C13.8321 5.85528 13.6914 5.8554 13.5506 5.85536M13.9728 5.85491L14.1742 5.85428L13.5506 5.85536M13.9728 5.85491L13.9726 5.80491L13.9727 5.80491M13.9728 5.85491L13.9727 5.80491M13.5506 5.85536L13.9727 5.80491M12.0765 4.49145L12.1671 4.49096L12.0765 4.49145ZM14.9005 4.57343C14.9694 4.59756 15.035 4.63637 15.1092 4.69776L14.2863 4.53821C14.3813 4.53782 14.4764 4.53803 14.5715 4.5384L14.5722 4.53839L14.6568 4.53767C14.7539 4.53852 14.8304 4.54891 14.9005 4.57343ZM14.0819 4.4887C14.15 4.48869 14.218 4.48852 14.2861 4.48821L14.0819 4.4887Z" fill="#0DA0A8" stroke="white" stroke-width="0.1"/>
</svg>
