<svg width="56" height="56" viewBox="0 0 56 56" fill="none" xmlns="http://www.w3.org/2000/svg">
<rect width="56" height="56" rx="6" fill="url(#paint0_linear_92_124)"/>
<g clip-path="url(#clip0_92_124)">
<path d="M41.8915 22.1166L40.1806 22.8091C40.8889 24.5589 41.248 26.3054 41.248 28C41.248 35.6669 35.6669 41.125 28 41.125C24.6504 41.125 20.7541 40.6494 18.2214 38.4148L21.0073 38.0086L20.741 36.1822L15.3467 36.9687V41.8428H17.1924V39.9651C20.0314 42.3911 24.2826 42.9707 28 42.9707C36.6723 42.9707 43.0938 36.6718 43.0938 28C43.0938 26.0669 42.6892 24.0875 41.8915 22.1166Z" fill="white" stroke="white"/>
<path d="M27.9999 14.1572C31.3495 14.1572 34.5897 15.3506 37.1224 17.5852L34.3365 17.9914L34.6028 19.8178L39.9971 19.0312V14.1572H38.1514V16.0349C35.3123 13.6089 31.7172 12.9678 27.9999 12.9678C19.3275 12.9678 13.2743 18.0749 13.2743 26.7466C13.2743 28.6797 13.6788 30.6592 14.4765 32.63L16.1874 31.9375C15.4791 30.1877 15.12 28.4412 15.12 26.7466C15.12 19.0798 20.333 14.1572 27.9999 14.1572Z" fill="white" stroke="white"/>
<path d="M28 25.2314C26.4734 25.2314 25.2314 26.4734 25.2314 28C25.2314 29.5266 26.4734 30.7686 28 30.7686C29.5266 30.7686 30.7686 29.5266 30.7686 28C30.7686 26.4734 29.5266 25.2314 28 25.2314ZM28 28.9229C27.4911 28.9229 27.0771 28.5089 27.0771 28C27.0771 27.4911 27.4911 27.0771 28 27.0771C28.5089 27.0771 28.9229 27.4911 28.9229 28C28.9229 28.5089 28.5089 28.9229 28 28.9229Z" fill="white" stroke="white" stroke-width="0.5"/>
<path d="M36.3057 28.9229V27.0771H34.3938C34.2368 25.9843 33.8056 24.9788 33.1718 24.1333L34.5255 22.7796L33.2204 21.4745L31.8667 22.8282C31.0212 22.1945 30.0157 21.7633 28.9229 21.6062V19.6943H27.0771V21.6062C25.9843 21.7632 24.9788 22.1944 24.1333 22.8282L22.7796 21.4745L21.4745 22.7796L22.8282 24.1333C22.1945 24.9788 21.7633 25.9843 21.6062 27.0771H19.6943V28.9229H21.6062C21.7632 30.0157 22.1944 31.0212 22.8282 31.8667L21.4745 33.2204L22.7796 34.5255L24.1333 33.1718C24.9788 33.8055 25.9843 34.2367 27.0771 34.3938V36.3057H28.9229V34.3938C30.0157 34.2368 31.0212 33.8056 31.8667 33.1718L33.2204 34.5255L34.5255 33.2204L33.1718 31.8667C33.8055 31.0212 34.2367 30.0157 34.3938 28.9229H36.3057ZM28 32.6143C25.4557 32.6143 23.3857 30.5443 23.3857 28C23.3857 25.4557 25.4557 23.3857 28 23.3857C30.5443 23.3857 32.6143 25.4557 32.6143 28C32.6143 30.5443 30.5443 32.6143 28 32.6143Z" fill="white" stroke="white" stroke-width="0.5"/>
</g>
<defs>
<linearGradient id="paint0_linear_92_124" x1="8.3125" y1="-6.26664e-07" x2="56" y2="56" gradientUnits="userSpaceOnUse">
<stop stop-color="#3BE961"/>
<stop offset="1" stop-color="#058D12"/>
</linearGradient>
<clipPath id="clip0_92_124">
<rect width="31.5" height="31.5" fill="white" transform="translate(12.25 12.25)"/>
</clipPath>
</defs>
</svg>
