<svg width="12" height="12" viewBox="0 0 12 12" fill="none" xmlns="http://www.w3.org/2000/svg">
<path d="M9.1875 4.59375H7.92398C7.38771 4.59375 6.9057 4.89141 6.66605 5.37103L6.52734 5.64844H3.53906V6.35156H12V5.64844H10.5438C10.3866 5.04359 9.84096 4.59375 9.1875 4.59375Z" fill="#09445A"/>
<path d="M5.29688 0.703125C5.29688 0.314789 4.98209 0 4.59375 0H3.1875C2.79916 0 2.48438 0.314789 2.48438 0.703125V1.40625H5.29688V0.703125Z" fill="#09445A"/>
<path d="M6.35156 11.2969H10.5938V12H6.35156V11.2969Z" fill="#09445A"/>
<path d="M10.5938 7.05463H7.40627V9.164H7.16114L6.34952 7.7581C6.00534 7.16162 5.25436 6.94163 4.81118 7.10129L4.44867 7.23193L6.3109 10.5937H10.5938V7.05463Z" fill="#09445A"/>
<path d="M3.54469 7.05469H2.83594V4.94531H6.1027C6.45134 4.34184 7.06439 3.95611 7.75781 3.90213V0.703125H6V2.10938H1.78125V0.703125H0V10.5938H5.5058L3.54469 7.05469ZM1.32668 3.64207L1.78125 4.09662L2.93895 2.93892L3.43608 3.43605L1.78125 5.09088L0.82957 4.1392L1.32668 3.64207ZM0.726562 7.05469H2.13281V7.75781H0.726562V7.05469ZM2.83594 9.16406H0.726562V8.46094H2.83594V9.16406Z" fill="#09445A"/>
</svg>
